# xmcd CD database file
#
# Track frame offsets:
#	150
#	18390
#	41345
#	59802
#
# Disc length: 1156 seconds
#
# Revision: 0
# Processed by: cddbd v1.5.1PL0 Copyright (c) Steve Scherf et al.
# Submitted via: CDex 1.51
#
DISCID=2f048204
DTITLE=中森明菜 - SILENT LOVE
DYEAR=1984
DGENRE=JPop
TTITLE0=BLUE BAY STORY
TTITLE1=LITTLE PARTY
TTITLE2=TERMINAL までの EVE
TTITLE3=星の X'MAS-BERRY〜 〜A TENDER STAR
EXTD=YEAR: 1984
EXTT0=
EXTT1=
EXTT2=
EXTT3=
PLAYORDER=
